<?xml version="1.0" standalone="no"?>
<!DOCTYPE svg PUBLIC "-//W3C//DTD SVG 20010904//EN"
 "http://www.w3.org/TR/2001/REC-SVG-20010904/DTD/svg10.dtd">
<svg version="1.0" xmlns="http://www.w3.org/2000/svg"
 width="1024.000000pt" height="1024.000000pt" viewBox="0 0 1024.000000 1024.000000"
 preserveAspectRatio="xMidYMid meet">
<metadata>
Created by potrace 1.14, written by Peter Selinger 2001-2017
</metadata>
<g transform="translate(0.000000,1024.000000) scale(0.100000,-0.100000)"
fill="#000000" stroke="none">
<path d="M0 5120 l0 -5120 5120 0 5120 0 0 5120 0 5120 -5120 0 -5120 0 0
-5120z m3409 2783 c207 -782 379 -1419 382 -1415 4 4 172 630 373 1392 202
762 372 1400 377 1418 l11 32 220 0 220 0 -7 -27 c-3 -16 -214 -739 -469
-1608 l-463 -1580 -263 0 -262 0 -469 1600 c-258 880 -469 1603 -469 1608 0 4
100 6 222 5 l221 -3 376 -1422z m2443 710 l3 -716 680 716 680 716 255 1 255
0 -81 -82 c-63 -64 -598 -626 -1135 -1193 l-38 -40 643 -950 643 -950 -251 -3
c-138 -1 -255 -1 -261 2 -5 2 -244 364 -530 804 -286 441 -524 800 -530 799
-5 -1 -83 -79 -172 -173 l-163 -172 0 -631 0 -631 -215 0 -215 0 0 1610 0
1610 215 0 215 0 2 -717z m-3105 -4467 c455 -90 693 -333 719 -735 12 -180
-30 -364 -111 -485 -70 -106 -197 -186 -359 -229 l-88 -23 88 -22 c266 -66
448 -233 533 -489 41 -123 55 -232 48 -382 -10 -237 -74 -398 -212 -537 -94
-95 -184 -151 -319 -199 -226 -81 -381 -95 -1052 -95 l-504 0 0 1611 0 1611
588 -5 c488 -4 601 -7 669 -21z m1943 -1406 l0 -1430 780 0 780 0 0 -180 0
-180 -995 0 -995 0 0 1610 0 1610 215 0 215 0 0 -1430z m3154 105 l541 -1320
3 1323 2 1322 210 0 210 0 0 -1610 0 -1610 -274 0 -273 0 -25 58 c-13 31 -258
627 -544 1324 l-519 1267 -3 -1324 -2 -1325 -210 0 -210 0 0 1610 0 1610 276
-2 277 -3 541 -1320z"/>
<path d="M1927 3813 c-4 -3 -7 -224 -7 -491 l0 -484 348 4 c314 4 354 7 424
26 103 28 164 61 219 119 87 90 119 187 119 358 -1 125 -10 175 -47 251 -62
127 -183 190 -413 214 -106 11 -633 14 -643 3z"/>
<path d="M1920 1900 l0 -591 383 3 c424 5 462 10 603 79 167 82 254 273 240
529 -13 254 -99 405 -278 490 -141 67 -177 72 -585 77 l-363 5 0 -592z"/>
</g>
</svg>
